<mxfile host="app.diagrams.net" agent="Mozilla/5.0 (Windows NT 10.0; Win64; x64) AppleWebKit/537.36 (KHTML, like Gecko) Chrome/135.0.0.0 Safari/537.36" version="26.2.9">
  <diagram name="Page-1" id="U8cfBWAvN_czVKSkgQiC">
    <mxGraphModel dx="1419" dy="882" grid="1" gridSize="10" guides="1" tooltips="1" connect="1" arrows="1" fold="1" page="1" pageScale="1" pageWidth="850" pageHeight="1100" math="0" shadow="0">
      <root>
        <mxCell id="0" />
        <mxCell id="1" parent="0" />
        <mxCell id="PZqKp4pUMD_kOO-UN5FQ-1" value="" style="ellipse;whiteSpace=wrap;html=1;aspect=fixed;" vertex="1" parent="1">
          <mxGeometry x="390" y="410" width="80" height="80" as="geometry" />
        </mxCell>
        <mxCell id="PZqKp4pUMD_kOO-UN5FQ-2" value="" style="shape=cylinder3;whiteSpace=wrap;html=1;boundedLbl=1;backgroundOutline=1;size=15;" vertex="1" parent="1">
          <mxGeometry x="290" y="200" width="60" height="80" as="geometry" />
        </mxCell>
        <mxCell id="PZqKp4pUMD_kOO-UN5FQ-3" value="" style="shape=step;perimeter=stepPerimeter;whiteSpace=wrap;html=1;fixedSize=1;" vertex="1" parent="1">
          <mxGeometry x="510" y="200" width="120" height="80" as="geometry" />
        </mxCell>
      </root>
    </mxGraphModel>
  </diagram>
</mxfile>
